<mxfile host="app.diagrams.net" agent="Mozilla/5.0 (Windows NT 10.0; Win64; x64) AppleWebKit/537.36 (KHTML, like Gecko) Chrome/141.0.0.0 Safari/537.36" version="28.2.7">
  <diagram name="Página-1" id="--JoOMGT0TgeAa2JgI59">
    <mxGraphModel dx="1507" dy="660" grid="1" gridSize="10" guides="1" tooltips="1" connect="1" arrows="1" fold="1" page="1" pageScale="1" pageWidth="827" pageHeight="1169" math="0" shadow="0">
      <root>
        <mxCell id="0" />
        <mxCell id="1" parent="0" />
        <mxCell id="aJntInvGzr0CMX6a7zcA-4" value="" style="edgeStyle=orthogonalEdgeStyle;rounded=0;orthogonalLoop=1;jettySize=auto;html=1;" edge="1" parent="1" source="aJntInvGzr0CMX6a7zcA-1" target="aJntInvGzr0CMX6a7zcA-3">
          <mxGeometry relative="1" as="geometry" />
        </mxCell>
        <mxCell id="aJntInvGzr0CMX6a7zcA-1" value="inicio" style="strokeWidth=2;html=1;shape=mxgraph.flowchart.terminator;whiteSpace=wrap;" vertex="1" parent="1">
          <mxGeometry x="270" y="30" width="100" height="60" as="geometry" />
        </mxCell>
        <mxCell id="aJntInvGzr0CMX6a7zcA-6" value="" style="edgeStyle=orthogonalEdgeStyle;rounded=0;orthogonalLoop=1;jettySize=auto;html=1;" edge="1" parent="1" source="aJntInvGzr0CMX6a7zcA-3" target="aJntInvGzr0CMX6a7zcA-5">
          <mxGeometry relative="1" as="geometry" />
        </mxCell>
        <mxCell id="aJntInvGzr0CMX6a7zcA-3" value="real nota1, nota2, nota3, media" style="rounded=1;whiteSpace=wrap;html=1;absoluteArcSize=1;arcSize=14;strokeWidth=2;" vertex="1" parent="1">
          <mxGeometry x="205" y="130" width="230" height="60" as="geometry" />
        </mxCell>
        <mxCell id="aJntInvGzr0CMX6a7zcA-5" value="&quot;Digite a 1ª nota do aluno: &quot;" style="strokeWidth=2;html=1;shape=mxgraph.flowchart.display;whiteSpace=wrap;" vertex="1" parent="1">
          <mxGeometry x="202" y="230" width="236" height="80" as="geometry" />
        </mxCell>
        <mxCell id="aJntInvGzr0CMX6a7zcA-11" value="" style="edgeStyle=orthogonalEdgeStyle;rounded=0;orthogonalLoop=1;jettySize=auto;html=1;" edge="1" parent="1" source="aJntInvGzr0CMX6a7zcA-7" target="aJntInvGzr0CMX6a7zcA-10">
          <mxGeometry relative="1" as="geometry" />
        </mxCell>
        <mxCell id="aJntInvGzr0CMX6a7zcA-7" value="nota1" style="html=1;strokeWidth=2;shape=manualInput;whiteSpace=wrap;rounded=1;size=26;arcSize=11;" vertex="1" parent="1">
          <mxGeometry x="241" y="340" width="160" height="70" as="geometry" />
        </mxCell>
        <mxCell id="aJntInvGzr0CMX6a7zcA-9" style="edgeStyle=orthogonalEdgeStyle;rounded=0;orthogonalLoop=1;jettySize=auto;html=1;entryX=0.488;entryY=0.143;entryDx=0;entryDy=0;entryPerimeter=0;" edge="1" parent="1" source="aJntInvGzr0CMX6a7zcA-5" target="aJntInvGzr0CMX6a7zcA-7">
          <mxGeometry relative="1" as="geometry" />
        </mxCell>
        <mxCell id="aJntInvGzr0CMX6a7zcA-10" value="&quot;Digite a segunda nota do aluno: &quot;" style="strokeWidth=2;html=1;shape=mxgraph.flowchart.display;whiteSpace=wrap;" vertex="1" parent="1">
          <mxGeometry x="221" y="450" width="200" height="90" as="geometry" />
        </mxCell>
        <mxCell id="aJntInvGzr0CMX6a7zcA-15" value="" style="edgeStyle=orthogonalEdgeStyle;rounded=0;orthogonalLoop=1;jettySize=auto;html=1;" edge="1" parent="1" source="aJntInvGzr0CMX6a7zcA-12" target="aJntInvGzr0CMX6a7zcA-14">
          <mxGeometry relative="1" as="geometry" />
        </mxCell>
        <mxCell id="aJntInvGzr0CMX6a7zcA-12" value="nota2" style="html=1;strokeWidth=2;shape=manualInput;whiteSpace=wrap;rounded=1;size=26;arcSize=11;" vertex="1" parent="1">
          <mxGeometry x="240" y="570" width="170" height="70" as="geometry" />
        </mxCell>
        <mxCell id="aJntInvGzr0CMX6a7zcA-13" style="edgeStyle=orthogonalEdgeStyle;rounded=0;orthogonalLoop=1;jettySize=auto;html=1;entryX=0.476;entryY=0.157;entryDx=0;entryDy=0;entryPerimeter=0;" edge="1" parent="1" source="aJntInvGzr0CMX6a7zcA-10" target="aJntInvGzr0CMX6a7zcA-12">
          <mxGeometry relative="1" as="geometry" />
        </mxCell>
        <mxCell id="aJntInvGzr0CMX6a7zcA-14" value="&quot;Digite a 3ª nota do aluno:&amp;nbsp;" style="strokeWidth=2;html=1;shape=mxgraph.flowchart.display;whiteSpace=wrap;" vertex="1" parent="1">
          <mxGeometry x="221" y="680" width="209" height="90" as="geometry" />
        </mxCell>
        <mxCell id="aJntInvGzr0CMX6a7zcA-19" style="edgeStyle=orthogonalEdgeStyle;rounded=0;orthogonalLoop=1;jettySize=auto;html=1;entryX=0.5;entryY=0;entryDx=0;entryDy=0;" edge="1" parent="1" source="aJntInvGzr0CMX6a7zcA-16" target="aJntInvGzr0CMX6a7zcA-18">
          <mxGeometry relative="1" as="geometry" />
        </mxCell>
        <mxCell id="aJntInvGzr0CMX6a7zcA-16" value="nota3" style="html=1;strokeWidth=2;shape=manualInput;whiteSpace=wrap;rounded=1;size=26;arcSize=11;" vertex="1" parent="1">
          <mxGeometry x="253" y="800" width="150" height="70" as="geometry" />
        </mxCell>
        <mxCell id="aJntInvGzr0CMX6a7zcA-17" style="edgeStyle=orthogonalEdgeStyle;rounded=0;orthogonalLoop=1;jettySize=auto;html=1;entryX=0.477;entryY=0.157;entryDx=0;entryDy=0;entryPerimeter=0;" edge="1" parent="1" source="aJntInvGzr0CMX6a7zcA-14" target="aJntInvGzr0CMX6a7zcA-16">
          <mxGeometry relative="1" as="geometry" />
        </mxCell>
        <mxCell id="aJntInvGzr0CMX6a7zcA-21" value="" style="edgeStyle=orthogonalEdgeStyle;rounded=0;orthogonalLoop=1;jettySize=auto;html=1;" edge="1" parent="1" source="aJntInvGzr0CMX6a7zcA-18" target="aJntInvGzr0CMX6a7zcA-20">
          <mxGeometry relative="1" as="geometry" />
        </mxCell>
        <mxCell id="aJntInvGzr0CMX6a7zcA-18" value="media = (nota1 + nota2 + nota3) / 3" style="rounded=1;whiteSpace=wrap;html=1;absoluteArcSize=1;arcSize=14;strokeWidth=2;" vertex="1" parent="1">
          <mxGeometry x="228" y="910" width="200" height="60" as="geometry" />
        </mxCell>
        <mxCell id="aJntInvGzr0CMX6a7zcA-23" value="" style="edgeStyle=orthogonalEdgeStyle;rounded=0;orthogonalLoop=1;jettySize=auto;html=1;" edge="1" parent="1" source="aJntInvGzr0CMX6a7zcA-20" target="aJntInvGzr0CMX6a7zcA-22">
          <mxGeometry relative="1" as="geometry" />
        </mxCell>
        <mxCell id="aJntInvGzr0CMX6a7zcA-20" value="&quot;A média do aluno foi &quot;, media" style="strokeWidth=2;html=1;shape=mxgraph.flowchart.display;whiteSpace=wrap;" vertex="1" parent="1">
          <mxGeometry x="233.5" y="1010" width="189" height="90" as="geometry" />
        </mxCell>
        <mxCell id="aJntInvGzr0CMX6a7zcA-22" value="fim" style="strokeWidth=2;html=1;shape=mxgraph.flowchart.terminator;whiteSpace=wrap;" vertex="1" parent="1">
          <mxGeometry x="278" y="1130" width="100" height="60" as="geometry" />
        </mxCell>
      </root>
    </mxGraphModel>
  </diagram>
</mxfile>
